<svg width="512" height="512" viewBox="0 0 512 512" fill="none" xmlns="http://www.w3.org/2000/svg">
  <defs>
    <linearGradient id="g1" x1="0" y1="0" x2="1" y2="1">
      <stop offset="0%" stop-color="#1e40af"/>
      <stop offset="100%" stop-color="#2563eb"/>
    </linearGradient>
    <radialGradient id="g2" cx="50%" cy="40%" r="70%">
      <stop offset="0%" stop-color="rgba(147,197,253,0.9)"/>
      <stop offset="100%" stop-color="rgba(37,99,235,0)"/>
    </radialGradient>
    <filter id="glow" x="-50%" y="-50%" width="200%" height="200%">
      <feGaussianBlur in="SourceGraphic" stdDeviation="8" result="blur"/>
      <feMerge>
        <feMergeNode in="blur"/>
        <feMergeNode in="SourceGraphic"/>
      </feMerge>
    </filter>
  </defs>
  <rect width="512" height="512" rx="28" fill="#0b1120"/>
  <circle cx="256" cy="256" r="210" fill="url(#g2)" opacity="0.25"/>
  <g filter="url(#glow)">
    <path d="M164 118h184a16 16 0 0 1 16 16v40a16 16 0 0 1-16 16H212v86h96a16 16 0 0 1 16 16v40a16 16 0 0 1-16 16H164a16 16 0 0 1-16-16V134a16 16 0 0 1 16-16z"
      fill="url(#g1)"/>
    <path d="M352 222c-8.8 0-16 7.2-16 16v88c0 8.8-7.2 16-16 16h-96v36h128c17.7 0 32-14.3 32-32v-92c0-17.7-14.3-32-32-32z"
      fill="#60a5fa" opacity="0.22"/>
  </g>
  <circle cx="170" cy="138" r="6" fill="#93c5fd" opacity="0.9"/>
  <circle cx="344" cy="370" r="5" fill="#60a5fa" opacity="0.7"/>
</svg>
